<svg xmlns="http://www.w3.org/2000/svg" xmlns:xlink="http://www.w3.org/1999/xlink" viewBox="0 0 278 250" preserveAspectRatio="xMidYMid" style="display: block; shape-rendering: auto; background: transparent;" width="278" height="250"><style type="text/css">
  .ld-text text {
    text-anchor: middle;
    dominant-baseline: middle;
    font-size: 25px;
    opacity: 0;
    user-select: none;
    pointer-events: none;
  }
</style>
<g style="transform-origin:139px 125px;transform:scale(1)" class="ld-text">
<g transform="translate(139,125)">
  <g transform="scale(0.3125) translate(0,0)"><g class="path" style="opacity: 1; transform-origin: -368.48px 9.37px; transform: matrix3d(1, 0, 0, 0, 0, 1, 0, 0, 0, 0, 1, 0, 0, 0, 0, 1); animation: 1s linear -0.63s infinite normal forwards running animate-2j0bt313e17; transform-box: view-box;"><path d="M0.48-15.81L0.48-17.25L20.08-17.25L20.08 41.31L24.56 41.31L24.56 42.75L0.80 42.75L0.80 41.31L5.20 41.31L5.20-15.81L0.48-15.81" style="fill: rgb(255, 255, 255);" transform="translate(-381.000,-21.376)"></path></g><g class="path" style="opacity: 1; transform-origin: -334px 14.24px; transform: matrix3d(1, 0, 0, 0, 0, 1, 0, 0, 0, 0, 1, 0, 0, 0, 0, 1); animation: 1s linear -0.6s infinite normal forwards running animate-2j0bt313e17; transform-box: view-box;"><path d="M51.92 26.99L51.92 26.99L51.92 20.19Q51.92 12.43 51.08 8.87Q50.24 5.31 47.20 5.31L47.20 5.31Q45.44 5.31 44.36 6.31Q43.28 7.31 42.80 9.63L42.80 9.63Q42.08 13.23 42.08 20.59L42.08 20.59L42.08 26.83Q42.08 35.55 42.60 37.31Q43.12 39.07 43.68 40.19L43.68 40.19Q44.56 42.11 47.12 42.11L47.12 42.11Q50.24 42.11 51.20 38.51L51.20 38.51Q51.92 35.95 51.92 26.99 zM46.96 43.55Q36.96 43.55 31.84 38.43Q26.72 33.31 26.72 23.75Q26.72 14.19 32.20 9.03Q37.68 3.87 47.60 3.87Q57.52 3.87 62.40 8.63Q67.28 13.39 67.28 23.15L67.28 23.15Q67.28 43.55 46.96 43.55L46.96 43.55" style="fill: rgb(255, 255, 255);" transform="translate(-381.000,-21.376)"></path></g><g class="path" style="opacity: 1; transform-origin: -289.52px 14.24px; transform: matrix3d(1, 0, 0, 0, 0, 1, 0, 0, 0, 0, 1, 0, 0, 0, 0, 1); animation: 1s linear -0.57s infinite normal forwards running animate-2j0bt313e17; transform-box: view-box;"><path d="M88.72 23.95L88.72 23.95L91.04 23.95L91.04 17.79Q91.04 10.19 90.20 7.59Q89.36 4.99 86.96 4.99L86.96 4.99Q85.52 4.99 84.36 5.75Q83.20 6.51 83.20 7.83Q83.20 9.15 83.68 10.51L83.68 10.51L85.68 10.51Q86.32 12.19 86.32 14.55Q86.32 16.91 84.32 18.63Q82.32 20.35 79.28 20.35L79.28 20.35Q72.40 20.35 72.40 13.71L72.40 13.71Q72.40 3.87 89.12 3.87L89.12 3.87Q98.64 3.87 102.28 7.11Q105.92 10.35 105.92 18.99L105.92 18.99L105.92 35.23Q105.92 39.39 108.24 39.39L108.24 39.39Q110.96 39.39 111.44 31.15L111.44 31.15L112.64 31.23Q112.32 38.27 110 40.91Q107.68 43.55 102.40 43.55L102.40 43.55Q92.80 43.55 91.36 37.63L91.36 37.63Q90.32 40.67 88.24 42.11Q86.16 43.55 82.16 43.55L82.16 43.55Q70.32 43.55 70.32 33.87L70.32 33.87Q70.32 28.19 74.84 26.07Q79.36 23.95 88.72 23.95 zM85.52 33.79Q85.52 37.95 85.96 39.15Q86.40 40.35 87.64 40.35Q88.88 40.35 89.96 38.31Q91.04 36.27 91.04 32.67L91.04 32.67L91.04 25.23L90.48 25.23Q85.52 25.23 85.52 32.51L85.52 32.51L85.52 33.79" style="fill: rgb(255, 255, 255);" transform="translate(-381.000,-21.376)"></path></g><g class="path" style="opacity: 1; transform-origin: -244.68px 10.01px; transform: matrix3d(1, 0, 0, 0, 0, 1, 0, 0, 0, 0, 1, 0, 0, 0, 0, 1); animation: 1s linear -0.54s infinite normal forwards running animate-2j0bt313e17; transform-box: view-box;"><path d="M129.68 26.19Q129.68 34.59 130.56 37.35Q131.44 40.11 133.80 40.11Q136.16 40.11 137.88 38.03Q139.60 35.95 139.60 31.87L139.60 31.87L139.60 14.43Q139.60 10.99 138.24 8.59Q136.88 6.19 134.24 6.19Q131.60 6.19 130.64 9.71Q129.68 13.23 129.68 22.03L129.68 22.03L129.68 26.19 zM158.40 42.75L140.64 42.75L139.76 37.15Q137.04 43.55 128.72 43.55L128.72 43.55Q121.84 43.55 118.04 38.59Q114.24 33.63 114.24 23.79L114.24 23.79Q114.24 3.87 130.08 3.87L130.08 3.87Q137.12 3.87 139.36 7.79L139.36 7.79L139.36-15.81L134.48-15.81L134.48-17.25L154.48-17.25L154.48 41.31L158.40 41.31L158.40 42.75" style="fill: rgb(255, 255, 255);" transform="translate(-381.000,-21.376)"></path></g><g class="path" style="opacity: 1; transform-origin: -208.56px -25.2px; transform: matrix3d(1, 0, 0, 0, 0, 1, 0, 0, 0, 0, 1, 0, 0, 0, 0, 1); animation: 1s linear -0.51s infinite normal forwards running animate-2j0bt313e17; transform-box: view-box;"><path d="M172.24-0.85Q168-0.85 166.20-3.01Q164.40-5.17 164.40-8.37Q164.40-11.57 166.36-13.65Q168.32-15.73 172.32-15.73Q176.32-15.73 178.40-13.85Q180.48-11.97 180.48-8.49Q180.48-5.01 178.48-2.93Q176.48-0.85 172.24-0.85" style="fill: rgb(255, 255, 255);" transform="translate(-381.000,-21.376)"></path></g><g class="path" style="opacity: 1; transform-origin: -208.8px 13.76px; transform: matrix3d(1, 0, 0, 0, 0, 1, 0, 0, 0, 0, 1, 0, 0, 0, 0, 1); animation: 1s linear -0.48s infinite normal forwards running animate-2j0bt313e17; transform-box: view-box;"><path d="M160.16 6.11L160.16 4.67L179.76 4.67L179.76 41.31L184.24 41.31L184.24 42.75L160.48 42.75L160.48 41.31L164.88 41.31L164.88 6.11L160.16 6.11" style="fill: rgb(255, 255, 255);" transform="translate(-381.000,-21.376)"></path></g><g class="path" style="opacity: 1; transform-origin: -170.96px 13.6px; transform: matrix3d(1, 0, 0, 0, 0, 1, 0, 0, 0, 0, 1, 0, 0, 0, 0, 1); animation: 1s linear -0.45s infinite normal forwards running animate-2j0bt313e17; transform-box: view-box;"><path d="M186 6.11L186 4.67L205.28 4.67L205.28 12.03Q206.56 8.35 209.20 6.11Q211.84 3.87 217.20 3.87L217.20 3.87Q229.60 3.87 229.60 17.23L229.60 17.23L229.60 41.31L234.08 41.31L234.08 42.75L211.44 42.75L211.44 41.31L214.72 41.31L214.72 15.31Q214.72 10.51 214.08 9.11Q213.44 7.71 211.76 7.71L211.76 7.71Q209.20 7.71 207.24 11.07Q205.28 14.43 205.28 19.23L205.28 19.23L205.28 41.31L208.72 41.31L208.72 42.75L186 42.75L186 41.31L190.40 41.31L190.40 6.11L186 6.11" style="fill: rgb(255, 255, 255);" transform="translate(-381.000,-21.376)"></path></g><g class="path" style="opacity: 1; transform-origin: -125.8px 27.52px; transform: matrix3d(1, 0, 0, 0, 0, 1, 0, 0, 0, 0, 1, 0, 0, 0, 0, 1); animation: 1s linear -0.42s infinite normal forwards running animate-2j0bt313e17; transform-box: view-box;"><path d="M267.20 0.51L267.20 0.51L269.44-0.85Q269.92-3.33 267.52-3.33L267.52-3.33Q264.08-3.33 264.08 1.95L264.08 1.95Q264.08 4.03 264.64 6.75L264.64 6.75Q270.72 10.83 270.72 17.19Q270.72 23.55 266.32 27.07Q261.92 30.59 254.40 30.59L254.40 30.59Q251.28 30.59 247.92 29.95L247.92 29.95Q244.40 32.19 244.40 33.31Q244.40 34.43 249.52 34.43L249.52 34.43L257.68 34.43Q275.84 34.43 275.84 47.47L275.84 47.47Q275.84 54.51 270.36 58.63Q264.88 62.75 253.28 62.75L253.28 62.75Q233.52 62.75 233.52 54.19L233.52 54.19Q233.52 49.55 239.68 47.79L239.68 47.79L244.48 49.95Q243.84 52.27 243.84 54.35L243.84 54.35Q243.84 61.23 254.08 61.23L254.08 61.23Q260.32 61.23 263.68 58.91Q267.04 56.59 267.04 53.15Q267.04 49.71 265 48.55Q262.96 47.39 256.88 47.39L256.88 47.39L249.12 47.39Q242.64 47.39 239.84 45.23Q237.04 43.07 237.04 39.91Q237.04 36.75 239.04 34.63Q241.04 32.51 246.16 29.39L246.16 29.39Q236.88 26.75 236.88 17.23L236.88 17.23Q236.88 11.23 241.20 7.55Q245.52 3.87 254.16 3.87L254.16 3.87Q259.36 3.87 263.04 5.87L263.04 5.87Q262.56 3.71 262.56 1.95L262.56 1.95Q262.56-2.53 264.96-4.53Q267.36-6.53 270.32-6.53Q273.28-6.53 275.08-4.97Q276.88-3.41 276.88-0.69Q276.88 2.03 275.44 3.35Q274 4.67 271.96 4.67Q269.92 4.67 268.60 3.59Q267.28 2.51 267.20 0.51 zM250.24 15.47L250.24 15.47L250.24 19.79Q250.24 25.15 251.16 27.07Q252.08 28.99 253.96 28.99Q255.84 28.99 256.68 27.11Q257.52 25.23 257.52 19.39L257.52 19.39L257.52 15.47Q257.52 9.23 256.72 7.27Q255.92 5.31 254.04 5.31Q252.16 5.31 251.20 7.35Q250.24 9.39 250.24 15.47" style="fill: rgb(255, 255, 255);" transform="translate(-381.000,-21.376)"></path></g><g class="path" style="opacity: 1; transform-origin: -67.4px 28.83px; transform: matrix3d(1, 0, 0, 0, 0, 1, 0, 0, 0, 0, 1, 0, 0, 0, 0, 1); animation: 1s linear -0.39s infinite normal forwards running animate-2j0bt313e17; transform-box: view-box;"><path d="M320.48 21.23Q320.48 12.99 319.68 10.15Q318.88 7.31 316.56 7.31Q314.24 7.31 312.40 10.31Q310.56 13.31 310.56 18.35L310.56 18.35L310.56 32.99Q310.56 36.43 311.92 38.83Q313.28 41.23 315.92 41.23Q318.56 41.23 319.52 37.71Q320.48 34.19 320.48 25.39L320.48 25.39L320.48 21.23 zM291.44 4.67L310.40 4.67L310.40 10.99Q313.52 3.87 321.44 3.87L321.44 3.87Q328.32 3.87 332.12 8.83Q335.92 13.79 335.92 23.87Q335.92 33.95 331.80 38.75Q327.68 43.55 319.44 43.55L319.44 43.55Q315.60 43.55 313.68 42.59Q311.76 41.63 310.56 39.63L310.56 39.63L310.56 60.35L320.88 60.35L320.88 61.79L291.28 61.79L291.28 60.35L295.68 60.35L295.68 6.11L291.44 6.11L291.44 4.67" style="fill: rgb(255, 255, 255);" transform="translate(-381.000,-21.376)"></path></g><g class="path" style="opacity: 1; transform-origin: -30.96px 9.37px; transform: matrix3d(1, 0, 0, 0, 0, 1, 0, 0, 0, 0, 1, 0, 0, 0, 0, 1); animation: 1s linear -0.36s infinite normal forwards running animate-2j0bt313e17; transform-box: view-box;"><path d="M338-15.81L338-17.25L357.60-17.25L357.60 41.31L362.08 41.31L362.08 42.75L338.32 42.75L338.32 41.31L342.72 41.31L342.72-15.81L338-15.81" style="fill: rgb(255, 255, 255);" transform="translate(-381.000,-21.376)"></path></g><g class="path" style="opacity: 1; transform-origin: 2.01px 14.24px; transform: matrix3d(1, 0, 0, 0, 0, 1, 0, 0, 0, 0, 1, 0, 0, 0, 0, 1); animation: 1s linear -0.33s infinite normal forwards running animate-2j0bt313e17; transform-box: view-box;"><path d="M384.64 43.55Q374.32 43.55 369.16 38.23Q364 32.91 364 23.43Q364 13.95 369.80 8.91Q375.60 3.87 384.56 3.87L384.56 3.87Q402.72 3.87 402 22.11L402 22.11L379.44 22.11L379.44 25.23Q379.44 33.07 381.44 37.07Q383.44 41.07 388.40 41.07L388.40 41.07Q397.68 41.07 400.56 31.15L400.56 31.15L402 31.39Q400.48 37.15 396.52 40.35Q392.56 43.55 384.64 43.55L384.64 43.55 zM379.52 16.59L379.52 20.51L387.76 20.51L387.76 16.59Q387.76 10.11 387 7.75Q386.24 5.39 383.96 5.39Q381.68 5.39 380.60 7.91Q379.52 10.43 379.52 16.59L379.52 16.59" style="fill: rgb(255, 255, 255);" transform="translate(-381.000,-21.376)"></path></g><g class="path" style="opacity: 1; transform-origin: 45.84px 14.24px; transform: matrix3d(1, 0, 0, 0, 0, 1, 0, 0, 0, 0, 1, 0, 0, 0, 0, 1); animation: 1s linear -0.3s infinite normal forwards running animate-2j0bt313e17; transform-box: view-box;"><path d="M424.08 23.95L424.08 23.95L426.40 23.95L426.40 17.79Q426.40 10.19 425.56 7.59Q424.72 4.99 422.32 4.99L422.32 4.99Q420.88 4.99 419.72 5.75Q418.56 6.51 418.56 7.83Q418.56 9.15 419.04 10.51L419.04 10.51L421.04 10.51Q421.68 12.19 421.68 14.55Q421.68 16.91 419.68 18.63Q417.68 20.35 414.64 20.35L414.64 20.35Q407.76 20.35 407.76 13.71L407.76 13.71Q407.76 3.87 424.48 3.87L424.48 3.87Q434 3.87 437.64 7.11Q441.28 10.35 441.28 18.99L441.28 18.99L441.28 35.23Q441.28 39.39 443.60 39.39L443.60 39.39Q446.32 39.39 446.80 31.15L446.80 31.15L448 31.23Q447.68 38.27 445.36 40.91Q443.04 43.55 437.76 43.55L437.76 43.55Q428.16 43.55 426.72 37.63L426.72 37.63Q425.68 40.67 423.60 42.11Q421.52 43.55 417.52 43.55L417.52 43.55Q405.68 43.55 405.68 33.87L405.68 33.87Q405.68 28.19 410.20 26.07Q414.72 23.95 424.08 23.95 zM420.88 33.79Q420.88 37.95 421.32 39.15Q421.76 40.35 423 40.35Q424.24 40.35 425.32 38.31Q426.40 36.27 426.40 32.67L426.40 32.67L426.40 25.23L425.84 25.23Q420.88 25.23 420.88 32.51L420.88 32.51L420.88 33.79" style="fill: rgb(255, 255, 255);" transform="translate(-381.000,-21.376)"></path></g><g class="path" style="opacity: 1; transform-origin: 84.88px 14.21px; transform: matrix3d(1, 0, 0, 0, 0, 1, 0, 0, 0, 0, 1, 0, 0, 0, 0, 1); animation: 1s linear -0.27s infinite normal forwards running animate-2j0bt313e17; transform-box: view-box;"><path d="M451.60 43.55L450.64 43.55L450.64 29.23L451.60 29.23Q453.68 36.19 457.20 38.99Q460.72 41.79 466 41.79L466 41.79Q474.16 41.79 474.16 36.59L474.16 36.59Q474.16 34.35 472.16 33.23L472.16 33.23Q469.04 31.47 464.16 30.51L464.16 30.51Q458.72 29.07 455.04 26.67L455.04 26.67Q450.64 23.79 450.64 17.55Q450.64 11.31 454.48 7.59Q458.32 3.87 464.72 3.87L464.72 3.87Q468.64 3.87 472.80 5.71L472.80 5.71Q474.32 6.35 475.12 6.35Q475.92 6.35 476.48 5.79Q477.04 5.23 477.84 3.71L477.84 3.71L478.72 3.71L478.72 15.95L477.76 15.95Q473.68 5.55 465.12 5.55L465.12 5.55Q461.36 5.55 459.52 6.87Q457.68 8.19 457.68 10.19L457.68 10.19Q457.68 11.39 458.24 12.07Q458.80 12.75 459.12 13.07Q459.44 13.39 460.16 13.75Q460.88 14.11 461.36 14.31Q461.84 14.51 462.84 14.83Q463.84 15.15 464.32 15.23L464.32 15.23Q469.76 16.59 472.16 17.59Q474.56 18.59 476.72 20.03L476.72 20.03Q481.12 23.07 481.12 29.83Q481.12 36.59 477.12 40.07Q473.12 43.55 466.16 43.55L466.16 43.55Q461.20 43.55 456.56 41.23L456.56 41.23Q455.60 40.59 455.04 40.59L455.04 40.59Q453.28 40.59 451.60 43.55L451.60 43.55" style="fill: rgb(255, 255, 255);" transform="translate(-381.000,-21.376)"></path></g><g class="path" style="opacity: 1; transform-origin: 121.93px 14.24px; transform: matrix3d(1, 0, 0, 0, 0, 1, 0, 0, 0, 0, 1, 0, 0, 0, 0, 1); animation: 1s linear -0.24s infinite normal forwards running animate-2j0bt313e17; transform-box: view-box;"><path d="M504.56 43.55Q494.24 43.55 489.08 38.23Q483.92 32.91 483.92 23.43Q483.92 13.95 489.72 8.91Q495.52 3.87 504.48 3.87L504.48 3.87Q522.64 3.87 521.92 22.11L521.92 22.11L499.36 22.11L499.36 25.23Q499.36 33.07 501.36 37.07Q503.36 41.07 508.32 41.07L508.32 41.07Q517.60 41.07 520.48 31.15L520.48 31.15L521.92 31.39Q520.40 37.15 516.44 40.35Q512.48 43.55 504.56 43.55L504.56 43.55 zM499.44 16.59L499.44 20.51L507.68 20.51L507.68 16.59Q507.68 10.11 506.92 7.75Q506.16 5.39 503.88 5.39Q501.60 5.39 500.52 7.91Q499.44 10.43 499.44 16.59L499.44 16.59" style="fill: rgb(255, 255, 255);" transform="translate(-381.000,-21.376)"></path></g><g class="path" style="opacity: 1; transform-origin: 190.24px 13.76px; transform: matrix3d(1, 0, 0, 0, 0, 1, 0, 0, 0, 0, 1, 0, 0, 0, 0, 1); animation: 1s linear -0.21s infinite normal forwards running animate-2j0bt313e17; transform-box: view-box;"><path d="M569.52 6.11L566.56 6.11L566.56 4.67L587.20 4.67L587.20 6.11L583.92 6.11L591.12 33.07L598.24 6.11L592.72 6.11L592.72 4.67L603.52 4.67L603.52 6.11L600.16 6.11L590.56 42.75L579.60 42.75L572.64 18.19L565.12 42.75L554.40 42.75L542.56 6.11L538.96 6.11L538.96 4.67L563.20 4.67L563.20 6.11L558.40 6.11L565.76 33.31L571.52 14.59L569.52 6.11" style="fill: rgb(255, 255, 255);" transform="translate(-381.000,-21.376)"></path></g><g class="path" style="opacity: 1; transform-origin: 243.44px 14.24px; transform: matrix3d(1, 0, 0, 0, 0, 1, 0, 0, 0, 0, 1, 0, 0, 0, 0, 1); animation: 1s linear -0.18s infinite normal forwards running animate-2j0bt313e17; transform-box: view-box;"><path d="M621.68 23.95L621.68 23.95L624 23.95L624 17.79Q624 10.19 623.16 7.59Q622.32 4.99 619.92 4.99L619.92 4.99Q618.48 4.99 617.32 5.75Q616.16 6.51 616.16 7.83Q616.16 9.15 616.64 10.51L616.64 10.51L618.64 10.51Q619.28 12.19 619.28 14.55Q619.28 16.91 617.28 18.63Q615.28 20.35 612.24 20.35L612.24 20.35Q605.36 20.35 605.36 13.71L605.36 13.71Q605.36 3.87 622.08 3.87L622.08 3.87Q631.60 3.87 635.24 7.11Q638.88 10.35 638.88 18.99L638.88 18.99L638.88 35.23Q638.88 39.39 641.20 39.39L641.20 39.39Q643.92 39.39 644.40 31.15L644.40 31.15L645.60 31.23Q645.28 38.27 642.96 40.91Q640.64 43.55 635.36 43.55L635.36 43.55Q625.76 43.55 624.32 37.63L624.32 37.63Q623.28 40.67 621.20 42.11Q619.12 43.55 615.12 43.55L615.12 43.55Q603.28 43.55 603.28 33.87L603.28 33.87Q603.28 28.19 607.80 26.07Q612.32 23.95 621.68 23.95 zM618.48 33.79Q618.48 37.95 618.92 39.15Q619.36 40.35 620.60 40.35Q621.84 40.35 622.92 38.31Q624 36.27 624 32.67L624 32.67L624 25.23L623.44 25.23Q618.48 25.23 618.48 32.51L618.48 32.51L618.48 33.79" style="fill: rgb(255, 255, 255);" transform="translate(-381.000,-21.376)"></path></g><g class="path" style="opacity: 1; transform-origin: 277.36px -25.2px; transform: matrix3d(1, 0, 0, 0, 0, 1, 0, 0, 0, 0, 1, 0, 0, 0, 0, 1); animation: 1s linear -0.15s infinite normal forwards running animate-2j0bt313e17; transform-box: view-box;"><path d="M658.16-0.85Q653.92-0.85 652.12-3.01Q650.32-5.17 650.32-8.37Q650.32-11.57 652.28-13.65Q654.24-15.73 658.24-15.73Q662.24-15.73 664.32-13.85Q666.40-11.97 666.40-8.49Q666.40-5.01 664.40-2.93Q662.40-0.85 658.16-0.85" style="fill: rgb(255, 255, 255);" transform="translate(-381.000,-21.376)"></path></g><g class="path" style="opacity: 1; transform-origin: 277.12px 13.76px; transform: matrix3d(1, 0, 0, 0, 0, 1, 0, 0, 0, 0, 1, 0, 0, 0, 0, 1); animation: 1s linear -0.12s infinite normal forwards running animate-2j0bt313e17; transform-box: view-box;"><path d="M646.08 6.11L646.08 4.67L665.68 4.67L665.68 41.31L670.16 41.31L670.16 42.75L646.40 42.75L646.40 41.31L650.80 41.31L650.80 6.11L646.08 6.11" style="fill: rgb(255, 255, 255);" transform="translate(-381.000,-21.376)"></path></g><g class="path" style="opacity: 1; transform-origin: 305.92px 11.6px; transform: matrix3d(1, 0, 0, 0, 0, 1, 0, 0, 0, 0, 1, 0, 0, 0, 0, 1); animation: 1s linear -0.09s infinite normal forwards running animate-2j0bt313e17; transform-box: view-box;"><path d="M675.76 31.31L675.76 31.31L675.76 6.11L671.36 6.11L671.36 4.67L675.76 4.67L675.76-5.65L690.64-9.33L690.64 4.67L701.04 4.67L701.04 6.11L690.64 6.11L690.64 33.07Q690.64 36.83 691.40 38.59Q692.16 40.35 694.56 40.35Q696.96 40.35 698.76 37.95Q700.56 35.55 701.12 31.39L701.12 31.39L702.48 31.55Q701.84 37.07 698.96 40.31Q696.08 43.55 689.44 43.55Q682.80 43.55 679.28 40.91Q675.76 38.27 675.76 31.31" style="fill: rgb(255, 255, 255);" transform="translate(-381.000,-21.376)"></path></g><g class="path" style="opacity: 1; transform-origin: 332.08px 19.39px; transform: matrix3d(1, 0, 0, 0, 0, 1, 0, 0, 0, 0, 1, 0, 0, 0, 0, 1); animation: 1s linear -0.06s infinite normal forwards running animate-2j0bt313e17; transform-box: view-box;"><path d="M713 43.55Q709.52 43.55 707.80 41.51Q706.08 39.47 706.08 36.55Q706.08 33.63 707.88 31.63Q709.68 29.63 712.96 29.63Q716.24 29.63 718.16 31.31Q720.08 32.99 720.08 36.35Q720.08 39.71 718.28 41.63Q716.48 43.55 713 43.55" style="fill: rgb(255, 255, 255);" transform="translate(-381.000,-21.376)"></path></g><g class="path" style="opacity: 1; transform-origin: 353.28px 19.39px; transform: matrix3d(1, 0, 0, 0, 0, 1, 0, 0, 0, 0, 1, 0, 0, 0, 0, 1); animation: 1s linear -0.03s infinite normal forwards running animate-2j0bt313e17; transform-box: view-box;"><path d="M734.20 43.55Q730.72 43.55 729 41.51Q727.28 39.47 727.28 36.55Q727.28 33.63 729.08 31.63Q730.88 29.63 734.16 29.63Q737.44 29.63 739.36 31.31Q741.28 32.99 741.28 36.35Q741.28 39.71 739.48 41.63Q737.68 43.55 734.20 43.55" style="fill: rgb(255, 255, 255);" transform="translate(-381.000,-21.376)"></path></g><g class="path" style="opacity: 1; transform-origin: 374.48px 19.39px; transform: matrix3d(1, 0, 0, 0, 0, 1, 0, 0, 0, 0, 1, 0, 0, 0, 0, 1); animation: 1s linear 0s infinite normal forwards running animate-2j0bt313e17; transform-box: view-box;"><path d="M755.40 43.55Q751.92 43.55 750.20 41.51Q748.48 39.47 748.48 36.55Q748.48 33.63 750.28 31.63Q752.08 29.63 755.36 29.63Q758.64 29.63 760.56 31.31Q762.48 32.99 762.48 36.35Q762.48 39.71 760.68 41.63Q758.88 43.55 755.40 43.55" style="fill: rgb(255, 255, 255);" transform="translate(-381.000,-21.376)"></path></g></g><text dy="0.35em" fill="#ffffff" font-family="Abril Fatface" font-size="25">loading please wait...</text>
</g>
</g><style type="text/css">@keyframes animate-2j0bt313e17 { 0.00% {transform: translate(0.00px,0.00px) rotate(0.00deg) scale(1.00, 1.00) skew(0deg, 0.00deg) ;opacity: 1.00;}2.00% {animation-timing-function: cubic-bezier(0.20,0.39,0.50,0.97);transform: translate(0.00px,-1.08px) rotate(0.00deg) ;}36.00% {animation-timing-function: cubic-bezier(0.50,0.03,0.80,0.61);transform: translate(0.00px,-10.00px) rotate(0.00deg) ;}72.00% {transform: translate(0.00px,-0.12px) rotate(0.00deg) ;}74.00% {animation-timing-function: cubic-bezier(0.24,0.43,0.48,0.91);transform: translate(0.00px,0.00px) rotate(0.00deg) scale(1.00, 0.95) ;}86.00% {animation-timing-function: cubic-bezier(0.53,0.08,0.77,0.57);transform: translate(0.00px,0.00px) rotate(0.00deg) scale(1.00, 0.80) ;}100.00% {animation-timing-function: cubic-bezier(0.53,0.08,0.77,0.57);transform: translate(0.00px,0.00px) rotate(0.00deg) scale(1.00, 1.00) ;} }</style><!-- [ldio] generated by https://loading.io --></svg>